<svg xmlns="http://www.w3.org/2000/svg" width="150" height="150" viewBox="0 0 64 64"><g xmlns="http://www.w3.org/2000/svg"><path d="M47 5c-2.581 0-5.031.894-7 2.526V22c0 .69-.349 1.297-.88 1.657C41.213 25.811 44.006 27 47 27c6.065 0 11-4.935 11-11S53.065 5 47 5zM28 25H14c-1.654 0-3-1.346-3-3V4c0-1.654 1.346-3 3-3h14c1.654 0 3 1.346 3 3v18c0 1.654-1.346 3-3 3z" fill="#405b8b" data-original="#f0bc5e"/><path d="M9 4c0-1.654-1.346-3-3-3H4C2.346 1 1 2.346 1 4v18c0 1.654 1.346 3 3 3h2c1.654 0 3-1.346 3-3v-1h2v-2H9V7h2V5H9zM7 22c0 .551-.448 1-1 1H4c-.552 0-1-.449-1-1V4c0-.551.448-1 1-1h2c.552 0 1 .449 1 1zm39-3c-.552 0-1-.449-1-1h-2c0 1.654 1.346 3 3 3v2h2v-2h3v-3c0-1.654-1.346-3-3-3h-2c-.552 0-1-.449-1-1v-1h3c.552 0 1 .449 1 1h2c0-1.654-1.346-3-3-3V9h-2v2h-3v3c0 1.654 1.346 3 3 3h2c.552 0 1 .449 1 1v1zm-13 3c0 1.654 1.346 3 3 3h2c1.654 0 3-1.346 3-3V4c0-1.654-1.346-3-3-3h-2c-1.654 0-3 1.346-3 3v1h-2v2h2v12h-2v2h2zm2-18c0-.551.448-1 1-1h2c.552 0 1 .449 1 1v18c0 .551-.448 1-1 1h-2c-.552 0-1-.449-1-1zm13 57h-2V49h-8v12h-2V43h-8v18h-3.026A4.948 4.948 0 0026 58V32c0-.395-.081-.77-.22-1.116.175-.048.344-.108.506-.185L41 45.414l5-5L51.586 46l-3.667 3.667 15.298 2.55-2.55-15.298L57 40.586l-11-11-5 5-10.692-10.693a2.984 2.984 0 01-1.775 1.053L41 37.414l5-5 11 11 2.333-2.333 1.45 8.702-8.702-1.45L54.414 46 46 37.586l-5 5-13.301-13.301A2.95 2.95 0 0028 28v-3h-2v3c0 .551-.448 1-1 1h-8c-.552 0-1-.449-1-1v-3h-2v3c0 1.383.945 2.539 2.22 2.884-.139.346-.22.721-.22 1.116v26c0 2.757 2.243 5 5 5h35V53h-8zm-8-10h4v10h-4zm-10-6h4v16h-4zM18 58V32c0-.551.448-1 1-1h4c.552 0 1 .449 1 1v26c0 1.654-1.346 3-3 3s-3-1.346-3-3zm32-3h4v6h-4z" data-original="#000000"/></g></svg>