<svg xmlns="http://www.w3.org/2000/svg" width="150" height="150" viewBox="0 0 64 64"><g xmlns="http://www.w3.org/2000/svg"><path d="M16 63C7.729 63 1 56.271 1 48s6.729-15 15-15 15 6.729 15 15-6.729 15-15 15z" fill="#405b8b" data-original="#f0bc5e"/><path d="M50 22a2.996 2.996 0 002.816-2H63V4H52.816A2.996 2.996 0 0050 2h-4a2.996 2.996 0 00-2.881 2.211L40.57 2.512A8.969 8.969 0 0035.578 1H20c-1.103 0-2 .897-2 2 0 .732.212 1.409.556 2H14c-1.654 0-3 1.346-3 3 0 .352.072.686.184 1H10c-1.654 0-3 1.346-3 3s1.346 3 3 3h1.184A2.966 2.966 0 0011 16c0 1.383.945 2.539 2.22 2.884-.139.346-.22.721-.22 1.116 0 1.654 1.346 3 3 3h19.578a8.969 8.969 0 004.992-1.512l2.548-1.699A2.998 2.998 0 0046 22h1v2.101c-2.279.465-4 2.484-4 4.899s1.721 4.434 4 4.899v2.202A5.009 5.009 0 0043 41c0 2.211 1.452 4.069 3.445 4.727A2.993 2.993 0 0144 47h-3c0-1.654-1.346-3-3-3h-1.184A2.996 2.996 0 0034 42h-4.261c.282.644.512 1.313.703 2H34a1 1 0 011 1v6a1 1 0 01-1 1h-3.558a14.983 14.983 0 01-.703 2H34a2.996 2.996 0 002.816-2H38c1.654 0 3-1.346 3-3h3a5.007 5.007 0 004.608-3.062C51.076 45.634 53 43.549 53 41a5.01 5.01 0 00-4-4.899v-2.202c2.279-.465 4-2.484 4-4.899s-1.721-4.434-4-4.899V22zM39 49a1 1 0 01-1 1h-1v-4h1a1 1 0 011 1zm12-8a2.996 2.996 0 01-2 2.816V42h-2v1.816c-1.161-.414-2-1.514-2-2.816s.839-2.402 2-2.816V40h2v-1.816c1.161.414 2 1.514 2 2.816zm0-12a2.996 2.996 0 01-2 2.816V30h-2v1.816c-1.161-.414-2-1.514-2-2.816s.839-2.402 2-2.816V28h2v-1.816c1.161.414 2 1.514 2 2.816zm10-11h-8V6h8zM9 12c0-.551.448-1 1-1h16v2H10c-.552 0-1-.449-1-1zm5 3h12v2H14a1.001 1.001 0 010-2zm25.461 4.824A6.977 6.977 0 0135.578 21H16a1.001 1.001 0 010-2h10.25a4.382 4.382 0 001.043 1.708l1.414-1.415A2.398 2.398 0 0128 17.586v-7.172c0-.645.251-1.251.707-1.707l-1.414-1.415A4.382 4.382 0 0026.25 9H14a1.001 1.001 0 010-2h15.586l.949.95a6.958 6.958 0 004.95 2.05H37V8h-1.515a4.971 4.971 0 01-3.536-1.464L30.414 5H22c-1.103 0-2-.897-2-2h15.578a6.98 6.98 0 013.883 1.176L43 6.535v10.93zM45 19V5c0-.551.448-1 1-1h4c.552 0 1 .449 1 1v14c0 .551-.448 1-1 1h-4c-.552 0-1-.449-1-1zM17 45a1 1 0 011 1h2c0-1.654-1.346-3-3-3v-2h-2v2h-3v3c0 1.654 1.346 3 3 3h2a1 1 0 011 1v1h-3a1 1 0 01-1-1h-2c0 1.654 1.346 3 3 3v2h2v-2h3v-3c0-1.654-1.346-3-3-3h-2a1 1 0 01-1-1v-1z" data-original="#000000"/></g></svg>